<?xml version="1.0" encoding="UTF-8" standalone="no"?>
<!DOCTYPE svg PUBLIC "-//W3C//DTD SVG 1.1//EN" "http://www.w3.org/Graphics/SVG/1.1/DTD/svg11.dtd">
<svg width="100%" height="100%" viewBox="0 0 25 45" version="1.1" xmlns="http://www.w3.org/2000/svg" xmlns:xlink="http://www.w3.org/1999/xlink" xml:space="preserve" xmlns:serif="http://www.serif.com/" style="fill-rule:evenodd;clip-rule:evenodd;stroke-linejoin:round;stroke-miterlimit:2;">
    <g transform="matrix(1,0,0,1,-12.5151,-2.50458)">
        <path d="M34.961,2.98C34.441,2.996 33.949,3.215 33.586,3.586L13.586,23.586C12.805,24.367 12.805,25.633 13.586,26.414L33.586,46.414C34.086,46.938 34.832,47.148 35.535,46.965C36.234,46.781 36.781,46.234 36.965,45.535C37.148,44.832 36.938,44.086 36.414,43.586L17.828,25L36.414,6.414C37.004,5.84 37.184,4.961 36.863,4.199C36.539,3.441 35.785,2.957 34.961,2.98Z" style="fill-rule:nonzero;"/>
    </g>
</svg>
