<?xml version="1.0" encoding="UTF-8" standalone="no"?>
<!DOCTYPE svg PUBLIC "-//W3C//DTD SVG 1.1//EN" "http://www.w3.org/Graphics/SVG/1.1/DTD/svg11.dtd">
<svg width="100%" height="100%" viewBox="0 0 18 14" version="1.1" xmlns="http://www.w3.org/2000/svg" xmlns:xlink="http://www.w3.org/1999/xlink" xml:space="preserve" xmlns:serif="http://www.serif.com/" style="fill-rule:evenodd;clip-rule:evenodd;stroke-linejoin:round;stroke-miterlimit:2;">
    <g transform="matrix(1,0,0,1,-3.498,-5.494)">
        <path d="M19.98,5.99C19.721,5.998 19.474,6.107 19.293,6.293L9,16.586L5.707,13.293C5.519,13.097 5.258,12.986 4.986,12.986C4.437,12.986 3.986,13.437 3.986,13.986C3.986,14.258 4.097,14.519 4.293,14.707L8.293,18.707C8.681,19.095 9.319,19.095 9.707,18.707L20.707,7.707C20.901,7.519 21.01,7.26 21.01,6.99C21.01,6.441 20.559,5.99 20.01,5.99L19.98,5.99Z" style="fill-rule:nonzero;"/>
    </g>
</svg>
