<svg xmlns="http://www.w3.org/2000/svg" xmlns:xlink="http://www.w3.org/1999/xlink" viewBox="0 0 24 24"><path d="M6 2C4.9 2 4 2.9 4 4L4 20C4 21.1 4.9 22 6 22L12.832031 22L13.650391 21.177734L14.777344 20.039062L13.580078 18.832031L12.181641 17.423828L13.580078 16.015625L14.984375 14.601562L16.404297 13.171875L17.822266 14.601562L19 15.787109L20 14.779297L20 8L14 2L6 2 z M 13 3.5L18.5 9L13 9L13 3.5 z M 16.404297 16.009766L15 17.423828L17.595703 20.039062L15.070312 22.585938L16.472656 24L19 21.453125L21.527344 24L22.929688 22.585938L20.404297 20.039062L23 17.423828L21.595703 16.009766L19 18.625L16.404297 16.009766 z"/></svg>