<?xml version="1.0" encoding="UTF-8" standalone="no"?>
<!DOCTYPE svg PUBLIC "-//W3C//DTD SVG 1.1//EN" "http://www.w3.org/Graphics/SVG/1.1/DTD/svg11.dtd">
<svg width="100%" height="100%" viewBox="0 0 13 23" version="1.1" xmlns="http://www.w3.org/2000/svg" xmlns:xlink="http://www.w3.org/1999/xlink" xml:space="preserve" xmlns:serif="http://www.serif.com/" style="fill-rule:evenodd;clip-rule:evenodd;stroke-linejoin:round;stroke-miterlimit:2;">
    <g transform="matrix(1,0,0,1,-8.492,-3.502)">
        <path d="M9.99,3.99C9.442,3.99 8.99,4.442 8.99,4.99C8.99,5.26 9.1,5.519 9.293,5.707L18.586,15L9.293,24.293C9.097,24.481 8.986,24.742 8.986,25.014C8.986,25.563 9.437,26.014 9.986,26.014C10.258,26.014 10.519,25.903 10.707,25.707L20.707,15.707C21.095,15.319 21.095,14.681 20.707,14.293L10.707,4.293C10.519,4.1 10.26,3.99 9.99,3.99Z" style="fill-rule:nonzero;"/>
    </g>
</svg>
