<svg xmlns="http://www.w3.org/2000/svg" xmlns:xlink="http://www.w3.org/1999/xlink" viewBox="0 0 30 30"><path d="M15 3C10.346159 3 6.3077027 5.6628572 4.3203125 9.5449219 A 1.0001 1.0001 0 1 0 6.0996094 10.455078C7.7562192 7.2191429 11.107841 5 15 5C20.534534 5 25 9.4654664 25 15C25 20.534534 20.534534 25 15 25C11.107841 25 7.7562192 22.780857 6.0996094 19.544922 A 1.0001 1.0001 0 1 0 4.3203125 20.455078C6.3077027 24.337143 10.346159 27 15 27C21.615466 27 27 21.615466 27 15C27 8.3845336 21.615466 3 15 3 z M 13.990234 9.9902344 A 1.0001 1.0001 0 0 0 13.292969 11.707031L15.585938 14L4 14 A 1.0001 1.0001 0 1 0 4 16L15.585938 16L13.292969 18.292969 A 1.0001 1.0001 0 1 0 14.707031 19.707031L18.619141 15.794922 A 1.0001 1.0001 0 0 0 18.617188 14.203125L14.707031 10.292969 A 1.0001 1.0001 0 0 0 13.990234 9.9902344 z"/></svg>