<svg xmlns="http://www.w3.org/2000/svg" xmlns:xlink="http://www.w3.org/1999/xlink" viewBox="0 0 24 24"><path d="M20 2C19.507813 2 19.0625 2.195313 18.6875 2.46875L1.8125 9.03125C1.628906 8.703125 1.417969 8.5 1.1875 8.5C0.523438 8.5 0 10.066406 0 12C0 13.933594 0.523438 15.5 1.1875 15.5C1.417969 15.5 1.628906 15.296875 1.8125 14.96875L4.9375 16.21875C5.15625 17.832031 6.355469 19.375 7.9375 19.96875C8.886719 20.304688 9.796875 20.28125 10.53125 19.90625C10.972656 19.679688 11.316406 19.320313 11.5625 18.875L19.1875 21.90625C19.1875 21.90625 19.109375 21.800781 19.09375 21.78125C19.371094 21.914063 19.675781 22 20 22C20.820313 22 21.5 21.5 21.96875 20.90625C22.4375 20.3125 22.765625 19.574219 23.0625 18.6875C23.652344 16.914063 24 14.574219 24 12C24 9.425781 23.652344 7.085938 23.0625 5.3125C22.765625 4.425781 22.4375 3.6875 21.96875 3.09375C21.5 2.5 20.820313 2 20 2 Z M 20 4C20.007813 4 20.125 3.996094 20.375 4.3125C20.625 4.628906 20.941406 5.195313 21.1875 5.9375C21.683594 7.421875 22 9.605469 22 12C22 14.394531 21.683594 16.578125 21.1875 18.0625C20.941406 18.804688 20.625 19.371094 20.375 19.6875C20.125 20.003906 20.007813 20 20 20C19.992188 20 19.875 20.003906 19.625 19.6875C19.375 19.371094 19.058594 18.804688 18.8125 18.0625C18.316406 16.578125 18 14.394531 18 12C18 9.605469 18.316406 7.421875 18.8125 5.9375C19.058594 5.195313 19.375 4.628906 19.625 4.3125C19.875 3.996094 19.992188 4 20 4 Z M 6.09375 16.6875L10.65625 18.5C10.515625 18.738281 10.332031 18.910156 10.09375 19.03125C9.65625 19.253906 9.03125 19.296875 8.28125 19.03125C7.292969 18.660156 6.453125 17.695313 6.09375 16.6875Z"/></svg>