<svg xmlns="http://www.w3.org/2000/svg" xmlns:xlink="http://www.w3.org/1999/xlink" viewBox="0 0 50 50"><path d="M25 4C12.300781 4 2 13 2 24C2 30.199219 5.300781 36.101563 11 39.800781C10.898438 40.898438 10.300781 43.398438 8.199219 46.398438L7.101563 48L9.101563 48C14.5 48 18.199219 44.699219 19.398438 43.398438C21.199219 43.800781 23.101563 44 25 44C37.699219 44 48 35 48 24C48 13 37.699219 4 25 4 Z M 15 26C13.898438 26 13 25.101563 13 24C13 22.898438 13.898438 22 15 22C16.101563 22 17 22.898438 17 24C17 25.101563 16.101563 26 15 26 Z M 25 26C23.898438 26 23 25.101563 23 24C23 22.898438 23.898438 22 25 22C26.101563 22 27 22.898438 27 24C27 25.101563 26.101563 26 25 26 Z M 35 26C33.898438 26 33 25.101563 33 24C33 22.898438 33.898438 22 35 22C36.101563 22 37 22.898438 37 24C37 25.101563 36.101563 26 35 26Z"/></svg>