<svg xmlns="http://www.w3.org/2000/svg" xmlns:xlink="http://www.w3.org/1999/xlink" viewBox="0 0 24 24"><path d="M13.654297 2.6796875C13.476172 2.6796875 13.297531 2.7715312 13.207031 2.9570312L12.642578 4.1015625C12.570578 4.2495625 12.430578 4.351 12.267578 4.375L11.005859 4.5585938C10.595859 4.6185937 10.431516 5.1211563 10.728516 5.4101562L11.640625 6.3007812C11.758625 6.4157812 11.813156 6.5821406 11.785156 6.7441406L11.568359 8.0019531C11.497359 8.4099531 11.927922 8.7203437 12.294922 8.5273438L13.423828 7.9335938C13.568828 7.8565937 13.742672 7.8565938 13.888672 7.9335938L15.017578 8.5273438C15.383578 8.7203438 15.812188 8.4099531 15.742188 8.0019531L15.525391 6.7441406C15.497391 6.5811406 15.551922 6.4157813 15.669922 6.3007812L16.582031 5.4101562C16.879031 5.1211563 16.716641 4.6185937 16.306641 4.5585938L15.044922 4.375C14.882922 4.351 14.740969 4.2495625 14.667969 4.1015625L14.103516 2.9570312C14.011516 2.7715313 13.832422 2.6796875 13.654297 2.6796875 z M 7.8515625 8.9140625C7.4873125 8.9141875 7.1230781 9.0842813 6.9550781 9.4257812L5.3808594 12.619141L1.8574219 13.130859C1.4804219 13.185859 1.1687812 13.449547 1.0507812 13.810547C0.93378125 14.172547 1.0307344 14.569937 1.3027344 14.835938L3.8535156 17.320312L3.2519531 20.830078C3.1869531 21.205078 3.3404375 21.584594 3.6484375 21.808594C3.9584375 22.032594 4.3641719 22.062766 4.7011719 21.884766L7.8515625 20.228516L11.003906 21.884766C11.149906 21.961766 11.30975 22 11.46875 22C11.67575 22 11.883594 21.935594 12.058594 21.808594C12.365594 21.584594 12.519078 21.205078 12.455078 20.830078L11.853516 17.320312L14.402344 14.835938C14.675344 14.570937 14.77325 14.172547 14.65625 13.810547C14.53725 13.448547 14.224656 13.185859 13.847656 13.130859L10.324219 12.619141L8.7480469 9.4257812C8.5800469 9.0837812 8.2158125 8.9139375 7.8515625 8.9140625 z M 20.005859 9.8027344C19.858234 9.8027344 19.711719 9.8806563 19.636719 10.035156L19.167969 10.984375C19.107969 11.106375 18.990469 11.190938 18.855469 11.210938L17.806641 11.363281C17.466641 11.413281 17.330172 11.830312 17.576172 12.070312L18.335938 12.810547C18.432938 12.905547 18.476125 13.042734 18.453125 13.177734L18.275391 14.220703C18.217391 14.559703 18.572953 14.818203 18.876953 14.658203L19.814453 14.164062C19.935453 14.100062 20.078219 14.100062 20.199219 14.164062L21.136719 14.658203C21.440719 14.819203 21.796281 14.559703 21.738281 14.220703L21.560547 13.177734C21.537547 13.043734 21.581688 12.905547 21.679688 12.810547L22.4375 12.070312C22.6835 11.830312 22.547031 11.412281 22.207031 11.363281L21.158203 11.210938C21.023203 11.190937 20.907656 11.106375 20.847656 10.984375L20.378906 10.035156C20.302406 9.8806562 20.153484 9.8027344 20.005859 9.8027344 z"/></svg>