<svg xmlns="http://www.w3.org/2000/svg" xmlns:xlink="http://www.w3.org/1999/xlink" viewBox="0 0 24 24"><path d="M20.243,3.757c-2.34-2.338-6.146-2.338-8.485,0l-8,8C2.624,12.891,2,14.397,2,16s0.624,3.109,1.757,4.243 C4.891,21.376,6.398,22,8,22s3.109-0.624,4.243-1.757l8-8C22.582,9.903,22.582,6.097,20.243,3.757z M18.673,10.984l-2.903,2.903 c-0.391,0.39-1.024,0.39-1.414,0l-4.243-4.243c-0.391-0.391-0.391-1.024,0-1.414l3.058-3.058c0.78-0.78,1.804-1.169,2.829-1.169 c0.964,0,1.928,0.345,2.688,1.035C20.396,6.588,20.304,9.353,18.673,10.984z"/></svg>