<svg xmlns="http://www.w3.org/2000/svg" xmlns:xlink="http://www.w3.org/1999/xlink" viewBox="0 0 50 50"><path d="M5 0C2.242188 0 0 3.140625 0 7C0 10.859375 2.242188 14 5 14L33 14C33.554688 14 34 13.550781 34 13C34 12.449219 33.554688 12 33 12C31.402344 12 30 9.664063 30 7C30 6.757813 30.035156 6.503906 30.0625 6.25C30.117188 5.699219 30.214844 5.171875 30.375 4.6875C30.410156 4.574219 30.460938 4.484375 30.5 4.375C30.519531 4.332031 30.511719 4.261719 30.53125 4.21875C31.179688 2.457031 32.671875 0.53125 34.46875 0.1875C33.6875 0 33.355469 0 33 0 Z M 36.625 1.3125C33.816406 1.96875 32.839844 3.761719 32.40625 4.9375C32.394531 4.972656 32.390625 5.027344 32.375 5.0625C32.347656 5.140625 32.316406 5.191406 32.28125 5.3125C32.160156 5.675781 32.074219 6.058594 32.03125 6.46875C32.007813 6.683594 32 6.859375 32 7C32 8.71875 32.746094 9.820313 33.0625 10C34.6875 10.035156 36 11.367188 36 13C36 14.652344 34.652344 16 33 16L8 16L8 41C8 46.632813 11.558594 50 15 50L45 50C45.125 50 45.234375 49.980469 45.34375 49.9375C42.976563 49.121094 40 46.582031 40 41.375L40 9C40 5.425781 38.550781 2.78125 36.625 1.3125 Z M 15 21L17 21C17.550781 21 18 21.449219 18 22C18 22.550781 17.550781 23 17 23L15 23C14.449219 23 14 22.550781 14 22C14 21.449219 14.449219 21 15 21 Z M 21 21L33 21C33.554688 21 34 21.449219 34 22C34 22.550781 33.554688 23 33 23L21 23C20.449219 23 20 22.550781 20 22C20 21.449219 20.449219 21 21 21 Z M 15 27L17 27C17.550781 27 18 27.445313 18 28C18 28.554688 17.550781 29 17 29L15 29C14.449219 29 14 28.554688 14 28C14 27.445313 14.449219 27 15 27 Z M 21 27L33 27C33.554688 27 34 27.445313 34 28C34 28.554688 33.554688 29 33 29L21 29C20.449219 29 20 28.554688 20 28C20 27.445313 20.449219 27 21 27 Z M 15 33L17 33C17.550781 33 18 33.445313 18 34C18 34.554688 17.550781 35 17 35L15 35C14.449219 35 14 34.554688 14 34C14 33.445313 14.449219 33 15 33 Z M 21 33L33 33C33.554688 33 34 33.445313 34 34C34 34.554688 33.554688 35 33 35L21 35C20.449219 35 20 34.554688 20 34C20 33.445313 20.449219 33 21 33 Z M 42 36L42 41.40625C42 44.957031 43.988281 46.644531 44.875 47.3125C45.644531 47.894531 46.34375 48.402344 48.09375 48.46875C49.246094 47.183594 50 45.21875 50 43C50 39.140625 47.757813 36 45 36Z"/></svg>