<svg xmlns="http://www.w3.org/2000/svg" xmlns:xlink="http://www.w3.org/1999/xlink" viewBox="0 0 30 30"><path d="M6 3 A 2 2 0 0 0 4 5L4 11 A 2 2 0 0 0 5.3398438 12.884766 A 2 2 0 0 0 6 13 A 2 2 0 0 0 6.0214844 13L18 15L6.0214844 17.001953 A 2 2 0 0 0 6 17 A 2 2 0 0 0 5.3378906 17.115234 A 2 2 0 0 0 4 19L4 25 A 2 2 0 0 0 6 27 A 2 2 0 0 0 6.9921875 26.734375L6.9941406 26.734375L27.390625 15.921875L27.392578 15.917969 A 1 1 0 0 0 28 15 A 1 1 0 0 0 27.390625 14.078125L6.9941406 3.265625 A 2 2 0 0 0 6 3 z"/></svg>