<svg xmlns="http://www.w3.org/2000/svg" xmlns:xlink="http://www.w3.org/1999/xlink" viewBox="0 0 30 30"><path d="M24 4 A 2 2 0 0 0 22 6 A 2 2 0 0 0 22.029297 6.3398438L18.6875 9.125 A 2 2 0 0 0 18 9 A 2 2 0 0 0 16.898438 9.3320312L13.994141 7.8789062 A 2 2 0 0 0 12 6 A 2 2 0 0 0 10 8 A 2 2 0 0 0 10.005859 8.1289062L6.8847656 10.208984 A 2 2 0 0 0 6 10 A 2 2 0 0 0 4 12 A 2 2 0 0 0 6 14 A 2 2 0 0 0 8 12 A 2 2 0 0 0 7.9941406 11.873047L11.115234 9.7910156 A 2 2 0 0 0 12 10 A 2 2 0 0 0 13.101562 9.6679688L16.005859 11.121094 A 2 2 0 0 0 18 13 A 2 2 0 0 0 20 11 A 2 2 0 0 0 19.970703 10.660156L23.3125 7.875 A 2 2 0 0 0 24 8 A 2 2 0 0 0 26 6 A 2 2 0 0 0 24 4 z M 23 12C22.448 12 22 12.448 22 13L22 26L26 26L26 13C26 12.448 25.552 12 25 12L23 12 z M 11 14C10.448 14 10 14.448 10 15L10 26L14 26L14 15C14 14.448 13.552 14 13 14L11 14 z M 17 16C16.448 16 16 16.448 16 17L16 26L20 26L20 17C20 16.448 19.552 16 19 16L17 16 z M 5 18C4.448 18 4 18.448 4 19L4 26L8 26L8 19C8 18.448 7.552 18 7 18L5 18 z"/></svg>