<?xml version="1.0" encoding="UTF-8" standalone="no"?>
<!DOCTYPE svg PUBLIC "-//W3C//DTD SVG 1.1//EN" "http://www.w3.org/Graphics/SVG/1.1/DTD/svg11.dtd">
<svg width="100%" height="100%" viewBox="0 0 26 26" version="1.1" xmlns="http://www.w3.org/2000/svg" xmlns:xlink="http://www.w3.org/1999/xlink" xml:space="preserve" xmlns:serif="http://www.serif.com/" style="fill-rule:evenodd;clip-rule:evenodd;stroke-linejoin:round;stroke-miterlimit:2;">
    <g transform="matrix(0.968542,0,0,0.968542,0.438982,-0.301518)">
        <path d="M10.938,6.594C10.688,6.609 10.422,6.703 10.156,6.844C9.598,7.141 5.949,8.953 4,10.094C2.492,10.973 3.129,12.16 4.688,11.563C5.301,11.328 9.055,9.879 9.813,9.625C10.57,9.371 10.781,10.281 10.781,10.281L11.781,12.531C11.781,12.531 6.316,15.879 5.656,16.219C6.969,18.008 13.227,14.938 16.188,14.938C16.828,14.938 16.281,13.969 16.281,13.969C16.281,13.969 12.992,8.891 12.125,7.406C11.754,6.77 11.355,6.57 10.938,6.594ZM20,8.188C18.445,8.188 17.188,9.445 17.188,11C17.188,12.555 18.445,13.813 20,13.813C21.555,13.813 22.813,12.555 22.813,11C22.813,9.445 21.555,8.188 20,8.188ZM0.063,16.406C0.063,16.406 1.973,20.875 7.813,20.875C14.375,20.875 14.68,18.938 19.094,18.938C23.277,18.938 25.875,19.438 25.875,19.438C25.875,19.438 22.898,16.813 19.094,16.813C15.285,16.813 12.012,18.719 7.813,18.719C2.785,18.719 0.063,16.406 0.063,16.406Z" style="fill:rgb(0,159,255);fill-rule:nonzero;"/>
    </g>
</svg>
