<svg xmlns="http://www.w3.org/2000/svg" xmlns:xlink="http://www.w3.org/1999/xlink" viewBox="0 0 30 30"><path d="M15 1.0117188C14.17325 1.0117188 13.34625 1.2770469 12.65625 1.8105469L2.546875 9.6210938L8 13.908203L8 10C8 8.895 8.895 8 10 8L20 8C21.105 8 22 8.895 22 10L22 13.908203L27.453125 9.6210938L17.34375 1.8105469C16.65375 1.2770469 15.82675 1.0117187 15 1.0117188 z M 12 10 A 1.0001 1.0001 0 1 0 12 12L18 12 A 1.0001 1.0001 0 1 0 18 10L12 10 z M 2 11.736328L2 23.585938L8.6347656 16.949219L2 11.736328 z M 28 11.736328L21.365234 16.951172L28 23.585938L28 11.736328 z M 12 14 A 1.0001 1.0001 0 1 0 12 16L17 16 A 1.0001 1.0001 0 1 0 17 14L12 14 z M 10.21875 18.193359L2.4140625 26L27.585938 26L19.78125 18.195312L17.162109 20.251953C16.525109 20.751953 15.763 21.001953 15 21.001953C14.237 21.001953 13.473891 20.751953 12.837891 20.251953L10.21875 18.193359 z"/></svg>